<svg id="Layer_1" data-name="Layer 1" xmlns="http://www.w3.org/2000/svg" viewBox="0 0 572.04 699.78"><defs><style>.cls-1{fill:#202020;}</style></defs><path class="cls-1" d="M1615.62,1173.93c-8.07-27-63.68-39.59-68.89-48.28s0-19.14,0-19.14l-113.19.93-113.18-.93s5.21,10.45,0,19.14-60.82,21.24-68.89,48.28-6.28,53.11-6.28,53.11H1621.9S1623.69,1201,1615.62,1173.93Z" transform="translate(-1147.53 -530.25)"/><path class="cls-1" d="M1712.33,814.68c-5-10.83-16.65-18.82-27.55-15.79-8.82,2.45-15,11.17-18.49,20.21s-5.16,18.86-8.91,27.79a57.47,57.47,0,0,1-34.42,32c-1-48.75-7.8-105,.21-158.29,11.65-77.46,42.31-106.84,53.16-129.45,1.71-3.57-.71-7.82-4.44-7.82H1195.2c-3.74,0-6.16,4.25-4.44,7.82,10.85,22.61,41.51,52,53.16,129.45,8,53.27,1.17,109.54.21,158.29a57.52,57.52,0,0,1-34.43-32c-3.75-8.93-5.37-18.75-8.9-27.79s-9.67-17.76-18.49-20.21c-10.9-3-22.51,5-27.55,15.79s-4.79,23.65-2.93,35.6c6.78,43.49,34.51,82.55,71.7,101,11.32,5.63,23.63,9.59,34.57,15.8a77.36,77.36,0,0,0,4.35,7.23c10.15,14.93,27.57,27,47.51,36.7,18,8.72,29.49,28,29.49,49.2v50.93a5.2,5.2,0,0,0,5,5.38h178.19a5.19,5.19,0,0,0,5-5.38v-47.92c0-23,12.63-43.73,32-53.46,18.88-9.46,35.26-21.15,45-35.45a81.92,81.92,0,0,0,4.35-7.23c10.93-6.21,23.24-10.17,34.56-15.8,37.2-18.47,64.92-57.53,71.7-101C1717.12,838.33,1717.37,825.51,1712.33,814.68Z" transform="translate(-1147.53 -530.25)"/><path class="cls-1" d="M1244.13,879.52a57.52,57.52,0,0,1-34.43-32c-3.75-8.94-5.37-18.75-8.9-27.79s-9.67-17.77-18.49-20.22c-10.9-3-22.51,5-27.55,15.8s-4.79,23.65-2.93,35.59c6.78,43.49,34.51,82.56,71.7,101,11.32,5.62,23.64,9.59,34.57,15.8a78.68,78.68,0,0,0,4.35,7.23c10.15,14.93,27.57,27,47.51,36.7,16.65,8.08,27.77,25.23,29.3,44.59h188.85c2.44-19.91,14.31-37.2,31.55-45.84,18.88-9.47,35.26-21.15,45-35.45a83.4,83.4,0,0,0,4.35-7.23c10.93-6.21,23.24-10.18,34.56-15.8,37.2-18.47,64.92-57.54,71.7-101,1.87-11.94,2.12-24.76-2.92-35.59s-16.65-18.82-27.55-15.8c-8.82,2.45-15,11.18-18.49,20.22s-5.16,18.85-8.91,27.79a57.47,57.47,0,0,1-34.42,32c-.59-29.67-3.34-62.12-3.61-95H1247.74C1247.47,817.4,1244.71,849.85,1244.13,879.52Z" transform="translate(-1147.53 -530.25)"/><path class="cls-1" d="M16.4,22.6H555.64a0,0,0,0,1,0,0V43.91a26.72,26.72,0,0,1-26.72,26.72H43.12A26.72,26.72,0,0,1,16.4,43.91V22.6A0,0,0,0,1,16.4,22.6Z"/><path class="cls-1" d="M0,0H572a0,0,0,0,1,0,0V10.39A12.21,12.21,0,0,1,559.82,22.6H11.2A11.2,11.2,0,0,1,0,11.4V0A0,0,0,0,1,0,0Z"/><path class="cls-1" d="M1251.47,1176.92c-8.08,27-6.28,53.11-6.28,53.11H1621.9s1.79-26.07-6.28-53.11a27.52,27.52,0,0,0-3.39-7.15H1254.86A27.2,27.2,0,0,0,1251.47,1176.92Z" transform="translate(-1147.53 -530.25)"/><polygon class="cls-1" points="99.54 268.6 472.09 268.6 473.33 298.72 98.71 298.72 99.54 268.6"/></svg>