<?xml version="1.0" encoding="utf-8"?>
<!-- Generator: Adobe Illustrator 25.2.1, SVG Export Plug-In . SVG Version: 6.00 Build 0)  -->
<svg version="1.1" id="Layer_1" xmlns="http://www.w3.org/2000/svg" xmlns:xlink="http://www.w3.org/1999/xlink" x="0px" y="0px"
	 viewBox="0 0 3400 2000" style="enable-background:new 0 0 3400 2000;" xml:space="preserve">
<style type="text/css">
	.st0{fill:#FFFFFF;}
	.st1{fill:#202020;}
	.st2{fill:#4F5866;}
	.st3{fill:#F7F7F7;}
</style>
<rect class="st0" width="3400" height="2000"/>
<path class="st1" d="M1796.8,457.6c-1.3,11.2,14.2,18.3,24.3,13.3s15.1-16.5,18-27.5s4.9-22.6,12.1-31.3
	c5.1-6.1,12.3-10.1,19.8-12.9c32.8-12,77.9-5.1,98.3,23.2c14.7,20.3,14.2,52,12.4,77s-9.3,49.2-16.8,73.1l-28.3,90.6
	c-3.8,12.1-7.6,24.8-4.8,37.2c3.1,13.1,13.2,23.5,26.2,27.1c2.8,0.9,5.8,1,8.6,0.5c6.3-1.5,10.3-8.2,11.1-14.7s-0.9-13-2.1-19.4
	c-10.1-53.6,13.7-106.8,30-158.8c8.4-26.6,14.9-54.4,11.7-82.1s-20.4-59.2-45.3-71.8c-15.3-7.7-55.7-30.7-108.2-15.1
	c-45,13.4-58.8,64.9-68,79.3c-6.7,10.5-11.2,24.6-4.5,35.1L1796.8,457.6z"/>
<path class="st1" d="M1669.3,457.6c1.3,11.2-14.2,18.3-24.3,13.3s-15.1-16.5-18-27.5s-4.9-22.6-12.1-31.3
	c-5.1-6.1-12.3-10.1-19.8-12.9c-32.8-12-77.9-5.1-98.3,23.2c-14.7,20.3-14.2,52-12.4,77s9.3,49.2,16.8,73.1
	c9.5,30.2,18.9,60.4,28.3,90.6c3.8,12.1,7.6,24.8,4.8,37.2c-3.1,13.1-13.2,23.5-26.2,27.1c-2.8,0.9-5.8,1-8.6,0.5
	c-6.3-1.5-10.3-8.2-11.1-14.7s0.9-13,2.2-19.4c10.1-53.6-13.7-106.8-30-158.8c-8.4-26.6-14.9-54.4-11.7-82.1s20.4-59.2,45.3-71.8
	c15.3-7.7,55.7-30.7,108.2-15.1c45,13.4,58.8,64.9,68,79.3c6.7,10.5,11.2,24.6,4.5,35.1L1669.3,457.6z"/>
<path class="st1" d="M1988.3,789.5C1976.7,684,1839.4,576.9,1822,523.4s0-157.3,0-157.3h-180.6c0,0,17.4,103.8,0,157.3
	S1486.6,684,1475,789.5s30.4,272.8,94.2,381.6s96.7,157.3,96.7,157.3h131.4c0,0,32.9-48.5,96.7-157.3S1999.9,894.9,1988.3,789.5z"/>
<path class="st1" d="M1822,366.1h-180.6c0,0-16-6.7-24.6-14.9c-10.8-10.4-17.3-28.6-17.3-28.6h264.4c0,0-5,17.9-13.6,27.9
	C1843,358.9,1833,364.4,1822,366.1z"/>
<path class="st1" d="M1920.3,1368.5c0,0-44-7.5-69.8-13.3s-55.7-30.8-55.7-30.8l-16.4-22.2H1685l-16.4,22.2c0,0-29.9,24.9-55.7,30.8
	s-69.8,13.3-69.8,13.3c-9.2,10-14.1,29.9-14.1,29.9h405.5C1934.5,1398.4,1929.5,1378.4,1920.3,1368.5z"/>
<path class="st1" d="M1590.1,1206.2c50.2,84.2,75.9,122.2,75.9,122.2h131.4c0,0,25.8-38,75.9-122.2H1590.1z"/>
<path class="st1" d="M1528.9,1398.4h405.5c0,0-4.2-16.6-11.8-27h-382C1533.1,1381.8,1528.9,1398.4,1528.9,1398.4z"/>
<path class="st1" d="M1559.5,632.7h344.4c-7.2-8.8-14.5-17.4-21.5-25.7H1581C1574,615.3,1566.7,623.9,1559.5,632.7z"/>
<path class="st1" d="M1591.7,594.4h279.9c-5.4-6.4-10.6-12.6-15.4-18.5h-249.1C1602.3,581.8,1597.1,588,1591.7,594.4z"/>
<path class="st1" d="M1617.2,563.1h228.9c-3.8-4.9-7.2-9.6-10.3-14.1h-208.2C1624.5,553.5,1621,558.2,1617.2,563.1z"/>
<path class="st2" d="M1572.7,1166.3c2.9,0,5.3-2.4,5.3-5.3s-2.4-5.3-5.3-5.3s-5.3,2.4-5.3,5.3l0,0
	C1567.4,1163.9,1569.8,1166.3,1572.7,1166.3z"/>
<polyline class="st3" points="1978.2,747.4 1889.4,808.3 1873.7,858.3 1827.4,907.3 1818.4,1080.3 1873.7,920.3 1914.4,886.3 
	1925.4,814.3 1983.9,764.4 "/>
</svg>
