<svg width="50" height="47" viewBox="0 0 50 47" fill="red" xmlns="http://www.w3.org/2000/svg">
<path fill-rule="evenodd" clip-rule="evenodd" d="M29.1601 2.92698C27.2758 -0.594311 22.2273 -0.594312 20.3431 2.92698L0.81637 39.418C-1.44009 43.6348 2.94287 48.309 7.29591 46.328L22.6805 39.3267C23.9963 38.728 25.5068 38.728 26.8226 39.3267L42.2072 46.328C46.5602 48.309 50.9432 43.6349 48.6868 39.418L29.1601 2.92698ZM22.4804 31.0601C23.4898 32.8084 26.0133 32.8084 27.0227 31.0601L31.4109 23.4595C32.6866 21.2499 30.3757 18.7045 28.0535 19.7613L25.8378 20.7696C25.1477 21.0837 24.3554 21.0837 23.6653 20.7696L21.4496 19.7613C19.1273 18.7045 16.8165 21.2499 18.0922 23.4595L22.4804 31.0601Z" fill="rgb(223, 223, 223)"/>
</svg>
